%TF.GenerationSoftware,KiCad,Pcbnew,7.0.10*%
%TF.CreationDate,2024-03-20T18:31:23+01:00*%
%TF.ProjectId,ms404 pot adapter pcb,6d733430-3420-4706-9f74-206164617074,rev?*%
%TF.SameCoordinates,Original*%
%TF.FileFunction,Legend,Bot*%
%TF.FilePolarity,Positive*%
%FSLAX46Y46*%
G04 Gerber Fmt 4.6, Leading zero omitted, Abs format (unit mm)*
G04 Created by KiCad (PCBNEW 7.0.10) date 2024-03-20 18:31:23*
%MOMM*%
%LPD*%
G01*
G04 APERTURE LIST*
%ADD10C,0.150000*%
G04 APERTURE END LIST*
D10*
X102708800Y-63655741D02*
X102780228Y-63541455D01*
X102780228Y-63541455D02*
X102780228Y-63312884D01*
X102780228Y-63312884D02*
X102708800Y-63198598D01*
X102708800Y-63198598D02*
X102565942Y-63141455D01*
X102565942Y-63141455D02*
X101994514Y-63141455D01*
X101994514Y-63141455D02*
X101851657Y-63198598D01*
X101851657Y-63198598D02*
X101780228Y-63312884D01*
X101780228Y-63312884D02*
X101780228Y-63541455D01*
X101780228Y-63541455D02*
X101851657Y-63655741D01*
X101851657Y-63655741D02*
X101994514Y-63712884D01*
X101994514Y-63712884D02*
X102137371Y-63712884D01*
X102137371Y-63712884D02*
X102280228Y-63141455D01*
X101780228Y-64112883D02*
X102780228Y-64341455D01*
X102780228Y-64341455D02*
X102065942Y-64570026D01*
X102065942Y-64570026D02*
X102780228Y-64798597D01*
X102780228Y-64798597D02*
X101780228Y-65027169D01*
X102780228Y-65998598D02*
X101994514Y-65998598D01*
X101994514Y-65998598D02*
X101851657Y-65941455D01*
X101851657Y-65941455D02*
X101780228Y-65827169D01*
X101780228Y-65827169D02*
X101780228Y-65598598D01*
X101780228Y-65598598D02*
X101851657Y-65484312D01*
X102708800Y-65998598D02*
X102780228Y-65884312D01*
X102780228Y-65884312D02*
X102780228Y-65598598D01*
X102780228Y-65598598D02*
X102708800Y-65484312D01*
X102708800Y-65484312D02*
X102565942Y-65427169D01*
X102565942Y-65427169D02*
X102423085Y-65427169D01*
X102423085Y-65427169D02*
X102280228Y-65484312D01*
X102280228Y-65484312D02*
X102208800Y-65598598D01*
X102208800Y-65598598D02*
X102208800Y-65884312D01*
X102208800Y-65884312D02*
X102137371Y-65998598D01*
X101780228Y-66570026D02*
X102780228Y-66570026D01*
X101923085Y-66570026D02*
X101851657Y-66627169D01*
X101851657Y-66627169D02*
X101780228Y-66741454D01*
X101780228Y-66741454D02*
X101780228Y-66912883D01*
X101780228Y-66912883D02*
X101851657Y-67027169D01*
X101851657Y-67027169D02*
X101994514Y-67084312D01*
X101994514Y-67084312D02*
X102780228Y-67084312D01*
X102708800Y-68170026D02*
X102780228Y-68055740D01*
X102780228Y-68055740D02*
X102780228Y-67827168D01*
X102780228Y-67827168D02*
X102708800Y-67712883D01*
X102708800Y-67712883D02*
X102637371Y-67655740D01*
X102637371Y-67655740D02*
X102494514Y-67598597D01*
X102494514Y-67598597D02*
X102065942Y-67598597D01*
X102065942Y-67598597D02*
X101923085Y-67655740D01*
X101923085Y-67655740D02*
X101851657Y-67712883D01*
X101851657Y-67712883D02*
X101780228Y-67827168D01*
X101780228Y-67827168D02*
X101780228Y-68055740D01*
X101780228Y-68055740D02*
X101851657Y-68170026D01*
X102780228Y-68855739D02*
X102708800Y-68741454D01*
X102708800Y-68741454D02*
X102637371Y-68684311D01*
X102637371Y-68684311D02*
X102494514Y-68627168D01*
X102494514Y-68627168D02*
X102065942Y-68627168D01*
X102065942Y-68627168D02*
X101923085Y-68684311D01*
X101923085Y-68684311D02*
X101851657Y-68741454D01*
X101851657Y-68741454D02*
X101780228Y-68855739D01*
X101780228Y-68855739D02*
X101780228Y-69027168D01*
X101780228Y-69027168D02*
X101851657Y-69141454D01*
X101851657Y-69141454D02*
X101923085Y-69198597D01*
X101923085Y-69198597D02*
X102065942Y-69255739D01*
X102065942Y-69255739D02*
X102494514Y-69255739D01*
X102494514Y-69255739D02*
X102637371Y-69198597D01*
X102637371Y-69198597D02*
X102708800Y-69141454D01*
X102708800Y-69141454D02*
X102780228Y-69027168D01*
X102780228Y-69027168D02*
X102780228Y-68855739D01*
X102708800Y-69712882D02*
X102780228Y-69827168D01*
X102780228Y-69827168D02*
X102780228Y-70055739D01*
X102780228Y-70055739D02*
X102708800Y-70170025D01*
X102708800Y-70170025D02*
X102565942Y-70227168D01*
X102565942Y-70227168D02*
X102494514Y-70227168D01*
X102494514Y-70227168D02*
X102351657Y-70170025D01*
X102351657Y-70170025D02*
X102280228Y-70055739D01*
X102280228Y-70055739D02*
X102280228Y-69884311D01*
X102280228Y-69884311D02*
X102208800Y-69770025D01*
X102208800Y-69770025D02*
X102065942Y-69712882D01*
X102065942Y-69712882D02*
X101994514Y-69712882D01*
X101994514Y-69712882D02*
X101851657Y-69770025D01*
X101851657Y-69770025D02*
X101780228Y-69884311D01*
X101780228Y-69884311D02*
X101780228Y-70055739D01*
X101780228Y-70055739D02*
X101851657Y-70170025D01*
X102780228Y-70912882D02*
X102708800Y-70798597D01*
X102708800Y-70798597D02*
X102565942Y-70741454D01*
X102565942Y-70741454D02*
X101280228Y-70741454D01*
X102708800Y-71827168D02*
X102780228Y-71712882D01*
X102780228Y-71712882D02*
X102780228Y-71484311D01*
X102780228Y-71484311D02*
X102708800Y-71370025D01*
X102708800Y-71370025D02*
X102565942Y-71312882D01*
X102565942Y-71312882D02*
X101994514Y-71312882D01*
X101994514Y-71312882D02*
X101851657Y-71370025D01*
X101851657Y-71370025D02*
X101780228Y-71484311D01*
X101780228Y-71484311D02*
X101780228Y-71712882D01*
X101780228Y-71712882D02*
X101851657Y-71827168D01*
X101851657Y-71827168D02*
X101994514Y-71884311D01*
X101994514Y-71884311D02*
X102137371Y-71884311D01*
X102137371Y-71884311D02*
X102280228Y-71312882D01*
X102780228Y-72570024D02*
X102708800Y-72455739D01*
X102708800Y-72455739D02*
X102565942Y-72398596D01*
X102565942Y-72398596D02*
X101280228Y-72398596D01*
X102780228Y-73198595D02*
X102708800Y-73084310D01*
X102708800Y-73084310D02*
X102565942Y-73027167D01*
X102565942Y-73027167D02*
X101280228Y-73027167D01*
X102637371Y-73655738D02*
X102708800Y-73712881D01*
X102708800Y-73712881D02*
X102780228Y-73655738D01*
X102780228Y-73655738D02*
X102708800Y-73598595D01*
X102708800Y-73598595D02*
X102637371Y-73655738D01*
X102637371Y-73655738D02*
X102780228Y-73655738D01*
X102708800Y-74741453D02*
X102780228Y-74627167D01*
X102780228Y-74627167D02*
X102780228Y-74398595D01*
X102780228Y-74398595D02*
X102708800Y-74284310D01*
X102708800Y-74284310D02*
X102637371Y-74227167D01*
X102637371Y-74227167D02*
X102494514Y-74170024D01*
X102494514Y-74170024D02*
X102065942Y-74170024D01*
X102065942Y-74170024D02*
X101923085Y-74227167D01*
X101923085Y-74227167D02*
X101851657Y-74284310D01*
X101851657Y-74284310D02*
X101780228Y-74398595D01*
X101780228Y-74398595D02*
X101780228Y-74627167D01*
X101780228Y-74627167D02*
X101851657Y-74741453D01*
X102780228Y-75427166D02*
X102708800Y-75312881D01*
X102708800Y-75312881D02*
X102637371Y-75255738D01*
X102637371Y-75255738D02*
X102494514Y-75198595D01*
X102494514Y-75198595D02*
X102065942Y-75198595D01*
X102065942Y-75198595D02*
X101923085Y-75255738D01*
X101923085Y-75255738D02*
X101851657Y-75312881D01*
X101851657Y-75312881D02*
X101780228Y-75427166D01*
X101780228Y-75427166D02*
X101780228Y-75598595D01*
X101780228Y-75598595D02*
X101851657Y-75712881D01*
X101851657Y-75712881D02*
X101923085Y-75770024D01*
X101923085Y-75770024D02*
X102065942Y-75827166D01*
X102065942Y-75827166D02*
X102494514Y-75827166D01*
X102494514Y-75827166D02*
X102637371Y-75770024D01*
X102637371Y-75770024D02*
X102708800Y-75712881D01*
X102708800Y-75712881D02*
X102780228Y-75598595D01*
X102780228Y-75598595D02*
X102780228Y-75427166D01*
X102780228Y-76341452D02*
X101780228Y-76341452D01*
X101923085Y-76341452D02*
X101851657Y-76398595D01*
X101851657Y-76398595D02*
X101780228Y-76512880D01*
X101780228Y-76512880D02*
X101780228Y-76684309D01*
X101780228Y-76684309D02*
X101851657Y-76798595D01*
X101851657Y-76798595D02*
X101994514Y-76855738D01*
X101994514Y-76855738D02*
X102780228Y-76855738D01*
X101994514Y-76855738D02*
X101851657Y-76912880D01*
X101851657Y-76912880D02*
X101780228Y-77027166D01*
X101780228Y-77027166D02*
X101780228Y-77198595D01*
X101780228Y-77198595D02*
X101851657Y-77312880D01*
X101851657Y-77312880D02*
X101994514Y-77370023D01*
X101994514Y-77370023D02*
X102780228Y-77370023D01*
X107956104Y-64754360D02*
X107956104Y-65230550D01*
X108241819Y-64659122D02*
X107241819Y-64992455D01*
X107241819Y-64992455D02*
X108241819Y-65325788D01*
X108241819Y-66135312D02*
X108241819Y-65659122D01*
X108241819Y-65659122D02*
X107241819Y-65659122D01*
X107575152Y-66468646D02*
X108575152Y-66468646D01*
X107622771Y-66468646D02*
X107575152Y-66563884D01*
X107575152Y-66563884D02*
X107575152Y-66754360D01*
X107575152Y-66754360D02*
X107622771Y-66849598D01*
X107622771Y-66849598D02*
X107670390Y-66897217D01*
X107670390Y-66897217D02*
X107765628Y-66944836D01*
X107765628Y-66944836D02*
X108051342Y-66944836D01*
X108051342Y-66944836D02*
X108146580Y-66897217D01*
X108146580Y-66897217D02*
X108194200Y-66849598D01*
X108194200Y-66849598D02*
X108241819Y-66754360D01*
X108241819Y-66754360D02*
X108241819Y-66563884D01*
X108241819Y-66563884D02*
X108194200Y-66468646D01*
X108241819Y-67373408D02*
X107241819Y-67373408D01*
X108241819Y-67801979D02*
X107718009Y-67801979D01*
X107718009Y-67801979D02*
X107622771Y-67754360D01*
X107622771Y-67754360D02*
X107575152Y-67659122D01*
X107575152Y-67659122D02*
X107575152Y-67516265D01*
X107575152Y-67516265D02*
X107622771Y-67421027D01*
X107622771Y-67421027D02*
X107670390Y-67373408D01*
X108241819Y-68706741D02*
X107718009Y-68706741D01*
X107718009Y-68706741D02*
X107622771Y-68659122D01*
X107622771Y-68659122D02*
X107575152Y-68563884D01*
X107575152Y-68563884D02*
X107575152Y-68373408D01*
X107575152Y-68373408D02*
X107622771Y-68278170D01*
X108194200Y-68706741D02*
X108241819Y-68611503D01*
X108241819Y-68611503D02*
X108241819Y-68373408D01*
X108241819Y-68373408D02*
X108194200Y-68278170D01*
X108194200Y-68278170D02*
X108098961Y-68230551D01*
X108098961Y-68230551D02*
X108003723Y-68230551D01*
X108003723Y-68230551D02*
X107908485Y-68278170D01*
X107908485Y-68278170D02*
X107860866Y-68373408D01*
X107860866Y-68373408D02*
X107860866Y-68611503D01*
X107860866Y-68611503D02*
X107813247Y-68706741D01*
X108241819Y-70516265D02*
X107765628Y-70182932D01*
X108241819Y-69944837D02*
X107241819Y-69944837D01*
X107241819Y-69944837D02*
X107241819Y-70325789D01*
X107241819Y-70325789D02*
X107289438Y-70421027D01*
X107289438Y-70421027D02*
X107337057Y-70468646D01*
X107337057Y-70468646D02*
X107432295Y-70516265D01*
X107432295Y-70516265D02*
X107575152Y-70516265D01*
X107575152Y-70516265D02*
X107670390Y-70468646D01*
X107670390Y-70468646D02*
X107718009Y-70421027D01*
X107718009Y-70421027D02*
X107765628Y-70325789D01*
X107765628Y-70325789D02*
X107765628Y-69944837D01*
X107241819Y-70801980D02*
X108241819Y-71135313D01*
X108241819Y-71135313D02*
X107241819Y-71468646D01*
X108241819Y-72325789D02*
X108241819Y-71754361D01*
X108241819Y-72040075D02*
X107241819Y-72040075D01*
X107241819Y-72040075D02*
X107384676Y-71944837D01*
X107384676Y-71944837D02*
X107479914Y-71849599D01*
X107479914Y-71849599D02*
X107527533Y-71754361D01*
X107241819Y-73182932D02*
X107241819Y-72992456D01*
X107241819Y-72992456D02*
X107289438Y-72897218D01*
X107289438Y-72897218D02*
X107337057Y-72849599D01*
X107337057Y-72849599D02*
X107479914Y-72754361D01*
X107479914Y-72754361D02*
X107670390Y-72706742D01*
X107670390Y-72706742D02*
X108051342Y-72706742D01*
X108051342Y-72706742D02*
X108146580Y-72754361D01*
X108146580Y-72754361D02*
X108194200Y-72801980D01*
X108194200Y-72801980D02*
X108241819Y-72897218D01*
X108241819Y-72897218D02*
X108241819Y-73087694D01*
X108241819Y-73087694D02*
X108194200Y-73182932D01*
X108194200Y-73182932D02*
X108146580Y-73230551D01*
X108146580Y-73230551D02*
X108051342Y-73278170D01*
X108051342Y-73278170D02*
X107813247Y-73278170D01*
X107813247Y-73278170D02*
X107718009Y-73230551D01*
X107718009Y-73230551D02*
X107670390Y-73182932D01*
X107670390Y-73182932D02*
X107622771Y-73087694D01*
X107622771Y-73087694D02*
X107622771Y-72897218D01*
X107622771Y-72897218D02*
X107670390Y-72801980D01*
X107670390Y-72801980D02*
X107718009Y-72754361D01*
X107718009Y-72754361D02*
X107813247Y-72706742D01*
X107956104Y-73659123D02*
X107956104Y-74135313D01*
X108241819Y-73563885D02*
X107241819Y-73897218D01*
X107241819Y-73897218D02*
X108241819Y-74230551D01*
X107718009Y-74897218D02*
X107718009Y-74563885D01*
X108241819Y-74563885D02*
X107241819Y-74563885D01*
X107241819Y-74563885D02*
X107241819Y-75040075D01*
X109328009Y-65135312D02*
X109375628Y-65278169D01*
X109375628Y-65278169D02*
X109423247Y-65325788D01*
X109423247Y-65325788D02*
X109518485Y-65373407D01*
X109518485Y-65373407D02*
X109661342Y-65373407D01*
X109661342Y-65373407D02*
X109756580Y-65325788D01*
X109756580Y-65325788D02*
X109804200Y-65278169D01*
X109804200Y-65278169D02*
X109851819Y-65182931D01*
X109851819Y-65182931D02*
X109851819Y-64801979D01*
X109851819Y-64801979D02*
X108851819Y-64801979D01*
X108851819Y-64801979D02*
X108851819Y-65135312D01*
X108851819Y-65135312D02*
X108899438Y-65230550D01*
X108899438Y-65230550D02*
X108947057Y-65278169D01*
X108947057Y-65278169D02*
X109042295Y-65325788D01*
X109042295Y-65325788D02*
X109137533Y-65325788D01*
X109137533Y-65325788D02*
X109232771Y-65278169D01*
X109232771Y-65278169D02*
X109280390Y-65230550D01*
X109280390Y-65230550D02*
X109328009Y-65135312D01*
X109328009Y-65135312D02*
X109328009Y-64801979D01*
X109851819Y-65944836D02*
X109804200Y-65849598D01*
X109804200Y-65849598D02*
X109756580Y-65801979D01*
X109756580Y-65801979D02*
X109661342Y-65754360D01*
X109661342Y-65754360D02*
X109375628Y-65754360D01*
X109375628Y-65754360D02*
X109280390Y-65801979D01*
X109280390Y-65801979D02*
X109232771Y-65849598D01*
X109232771Y-65849598D02*
X109185152Y-65944836D01*
X109185152Y-65944836D02*
X109185152Y-66087693D01*
X109185152Y-66087693D02*
X109232771Y-66182931D01*
X109232771Y-66182931D02*
X109280390Y-66230550D01*
X109280390Y-66230550D02*
X109375628Y-66278169D01*
X109375628Y-66278169D02*
X109661342Y-66278169D01*
X109661342Y-66278169D02*
X109756580Y-66230550D01*
X109756580Y-66230550D02*
X109804200Y-66182931D01*
X109804200Y-66182931D02*
X109851819Y-66087693D01*
X109851819Y-66087693D02*
X109851819Y-65944836D01*
X109185152Y-67135312D02*
X109851819Y-67135312D01*
X109185152Y-66706741D02*
X109708961Y-66706741D01*
X109708961Y-66706741D02*
X109804200Y-66754360D01*
X109804200Y-66754360D02*
X109851819Y-66849598D01*
X109851819Y-66849598D02*
X109851819Y-66992455D01*
X109851819Y-66992455D02*
X109804200Y-67087693D01*
X109804200Y-67087693D02*
X109756580Y-67135312D01*
X109851819Y-67611503D02*
X109185152Y-67611503D01*
X109375628Y-67611503D02*
X109280390Y-67659122D01*
X109280390Y-67659122D02*
X109232771Y-67706741D01*
X109232771Y-67706741D02*
X109185152Y-67801979D01*
X109185152Y-67801979D02*
X109185152Y-67897217D01*
X109185152Y-68230551D02*
X109851819Y-68230551D01*
X109280390Y-68230551D02*
X109232771Y-68278170D01*
X109232771Y-68278170D02*
X109185152Y-68373408D01*
X109185152Y-68373408D02*
X109185152Y-68516265D01*
X109185152Y-68516265D02*
X109232771Y-68611503D01*
X109232771Y-68611503D02*
X109328009Y-68659122D01*
X109328009Y-68659122D02*
X109851819Y-68659122D01*
X109804200Y-69516265D02*
X109851819Y-69421027D01*
X109851819Y-69421027D02*
X109851819Y-69230551D01*
X109851819Y-69230551D02*
X109804200Y-69135313D01*
X109804200Y-69135313D02*
X109708961Y-69087694D01*
X109708961Y-69087694D02*
X109328009Y-69087694D01*
X109328009Y-69087694D02*
X109232771Y-69135313D01*
X109232771Y-69135313D02*
X109185152Y-69230551D01*
X109185152Y-69230551D02*
X109185152Y-69421027D01*
X109185152Y-69421027D02*
X109232771Y-69516265D01*
X109232771Y-69516265D02*
X109328009Y-69563884D01*
X109328009Y-69563884D02*
X109423247Y-69563884D01*
X109423247Y-69563884D02*
X109518485Y-69087694D01*
X109804200Y-69944837D02*
X109851819Y-70040075D01*
X109851819Y-70040075D02*
X109851819Y-70230551D01*
X109851819Y-70230551D02*
X109804200Y-70325789D01*
X109804200Y-70325789D02*
X109708961Y-70373408D01*
X109708961Y-70373408D02*
X109661342Y-70373408D01*
X109661342Y-70373408D02*
X109566104Y-70325789D01*
X109566104Y-70325789D02*
X109518485Y-70230551D01*
X109518485Y-70230551D02*
X109518485Y-70087694D01*
X109518485Y-70087694D02*
X109470866Y-69992456D01*
X109470866Y-69992456D02*
X109375628Y-69944837D01*
X109375628Y-69944837D02*
X109328009Y-69944837D01*
X109328009Y-69944837D02*
X109232771Y-69992456D01*
X109232771Y-69992456D02*
X109185152Y-70087694D01*
X109185152Y-70087694D02*
X109185152Y-70230551D01*
X109185152Y-70230551D02*
X109232771Y-70325789D01*
X109851819Y-71563885D02*
X108851819Y-71563885D01*
X108851819Y-71563885D02*
X108851819Y-71944837D01*
X108851819Y-71944837D02*
X108899438Y-72040075D01*
X108899438Y-72040075D02*
X108947057Y-72087694D01*
X108947057Y-72087694D02*
X109042295Y-72135313D01*
X109042295Y-72135313D02*
X109185152Y-72135313D01*
X109185152Y-72135313D02*
X109280390Y-72087694D01*
X109280390Y-72087694D02*
X109328009Y-72040075D01*
X109328009Y-72040075D02*
X109375628Y-71944837D01*
X109375628Y-71944837D02*
X109375628Y-71563885D01*
X109851819Y-72563885D02*
X108851819Y-72563885D01*
X108851819Y-72563885D02*
X108851819Y-72801980D01*
X108851819Y-72801980D02*
X108899438Y-72944837D01*
X108899438Y-72944837D02*
X108994676Y-73040075D01*
X108994676Y-73040075D02*
X109089914Y-73087694D01*
X109089914Y-73087694D02*
X109280390Y-73135313D01*
X109280390Y-73135313D02*
X109423247Y-73135313D01*
X109423247Y-73135313D02*
X109613723Y-73087694D01*
X109613723Y-73087694D02*
X109708961Y-73040075D01*
X109708961Y-73040075D02*
X109804200Y-72944837D01*
X109804200Y-72944837D02*
X109851819Y-72801980D01*
X109851819Y-72801980D02*
X109851819Y-72563885D01*
X109328009Y-73897218D02*
X109375628Y-74040075D01*
X109375628Y-74040075D02*
X109423247Y-74087694D01*
X109423247Y-74087694D02*
X109518485Y-74135313D01*
X109518485Y-74135313D02*
X109661342Y-74135313D01*
X109661342Y-74135313D02*
X109756580Y-74087694D01*
X109756580Y-74087694D02*
X109804200Y-74040075D01*
X109804200Y-74040075D02*
X109851819Y-73944837D01*
X109851819Y-73944837D02*
X109851819Y-73563885D01*
X109851819Y-73563885D02*
X108851819Y-73563885D01*
X108851819Y-73563885D02*
X108851819Y-73897218D01*
X108851819Y-73897218D02*
X108899438Y-73992456D01*
X108899438Y-73992456D02*
X108947057Y-74040075D01*
X108947057Y-74040075D02*
X109042295Y-74087694D01*
X109042295Y-74087694D02*
X109137533Y-74087694D01*
X109137533Y-74087694D02*
X109232771Y-74040075D01*
X109232771Y-74040075D02*
X109280390Y-73992456D01*
X109280390Y-73992456D02*
X109328009Y-73897218D01*
X109328009Y-73897218D02*
X109328009Y-73563885D01*
X109851819Y-75087694D02*
X109851819Y-74516266D01*
X109851819Y-74801980D02*
X108851819Y-74801980D01*
X108851819Y-74801980D02*
X108994676Y-74706742D01*
X108994676Y-74706742D02*
X109089914Y-74611504D01*
X109089914Y-74611504D02*
X109137533Y-74516266D01*
X109280390Y-75659123D02*
X109232771Y-75563885D01*
X109232771Y-75563885D02*
X109185152Y-75516266D01*
X109185152Y-75516266D02*
X109089914Y-75468647D01*
X109089914Y-75468647D02*
X109042295Y-75468647D01*
X109042295Y-75468647D02*
X108947057Y-75516266D01*
X108947057Y-75516266D02*
X108899438Y-75563885D01*
X108899438Y-75563885D02*
X108851819Y-75659123D01*
X108851819Y-75659123D02*
X108851819Y-75849599D01*
X108851819Y-75849599D02*
X108899438Y-75944837D01*
X108899438Y-75944837D02*
X108947057Y-75992456D01*
X108947057Y-75992456D02*
X109042295Y-76040075D01*
X109042295Y-76040075D02*
X109089914Y-76040075D01*
X109089914Y-76040075D02*
X109185152Y-75992456D01*
X109185152Y-75992456D02*
X109232771Y-75944837D01*
X109232771Y-75944837D02*
X109280390Y-75849599D01*
X109280390Y-75849599D02*
X109280390Y-75659123D01*
X109280390Y-75659123D02*
X109328009Y-75563885D01*
X109328009Y-75563885D02*
X109375628Y-75516266D01*
X109375628Y-75516266D02*
X109470866Y-75468647D01*
X109470866Y-75468647D02*
X109661342Y-75468647D01*
X109661342Y-75468647D02*
X109756580Y-75516266D01*
X109756580Y-75516266D02*
X109804200Y-75563885D01*
X109804200Y-75563885D02*
X109851819Y-75659123D01*
X109851819Y-75659123D02*
X109851819Y-75849599D01*
X109851819Y-75849599D02*
X109804200Y-75944837D01*
X109804200Y-75944837D02*
X109756580Y-75992456D01*
X109756580Y-75992456D02*
X109661342Y-76040075D01*
X109661342Y-76040075D02*
X109470866Y-76040075D01*
X109470866Y-76040075D02*
X109375628Y-75992456D01*
X109375628Y-75992456D02*
X109328009Y-75944837D01*
X109328009Y-75944837D02*
X109280390Y-75849599D01*
X109851819Y-76992456D02*
X109851819Y-76421028D01*
X109851819Y-76706742D02*
X108851819Y-76706742D01*
X108851819Y-76706742D02*
X108994676Y-76611504D01*
X108994676Y-76611504D02*
X109089914Y-76516266D01*
X109089914Y-76516266D02*
X109137533Y-76421028D01*
X99253487Y-77933609D02*
X99110630Y-77981228D01*
X99110630Y-77981228D02*
X99063011Y-78028847D01*
X99063011Y-78028847D02*
X99015392Y-78124085D01*
X99015392Y-78124085D02*
X99015392Y-78266942D01*
X99015392Y-78266942D02*
X99063011Y-78362180D01*
X99063011Y-78362180D02*
X99110630Y-78409800D01*
X99110630Y-78409800D02*
X99205868Y-78457419D01*
X99205868Y-78457419D02*
X99586820Y-78457419D01*
X99586820Y-78457419D02*
X99586820Y-77457419D01*
X99586820Y-77457419D02*
X99253487Y-77457419D01*
X99253487Y-77457419D02*
X99158249Y-77505038D01*
X99158249Y-77505038D02*
X99110630Y-77552657D01*
X99110630Y-77552657D02*
X99063011Y-77647895D01*
X99063011Y-77647895D02*
X99063011Y-77743133D01*
X99063011Y-77743133D02*
X99110630Y-77838371D01*
X99110630Y-77838371D02*
X99158249Y-77885990D01*
X99158249Y-77885990D02*
X99253487Y-77933609D01*
X99253487Y-77933609D02*
X99586820Y-77933609D01*
X98443963Y-78457419D02*
X98539201Y-78409800D01*
X98539201Y-78409800D02*
X98586820Y-78362180D01*
X98586820Y-78362180D02*
X98634439Y-78266942D01*
X98634439Y-78266942D02*
X98634439Y-77981228D01*
X98634439Y-77981228D02*
X98586820Y-77885990D01*
X98586820Y-77885990D02*
X98539201Y-77838371D01*
X98539201Y-77838371D02*
X98443963Y-77790752D01*
X98443963Y-77790752D02*
X98301106Y-77790752D01*
X98301106Y-77790752D02*
X98205868Y-77838371D01*
X98205868Y-77838371D02*
X98158249Y-77885990D01*
X98158249Y-77885990D02*
X98110630Y-77981228D01*
X98110630Y-77981228D02*
X98110630Y-78266942D01*
X98110630Y-78266942D02*
X98158249Y-78362180D01*
X98158249Y-78362180D02*
X98205868Y-78409800D01*
X98205868Y-78409800D02*
X98301106Y-78457419D01*
X98301106Y-78457419D02*
X98443963Y-78457419D01*
X97824915Y-77790752D02*
X97443963Y-77790752D01*
X97682058Y-77457419D02*
X97682058Y-78314561D01*
X97682058Y-78314561D02*
X97634439Y-78409800D01*
X97634439Y-78409800D02*
X97539201Y-78457419D01*
X97539201Y-78457419D02*
X97443963Y-78457419D01*
X97253486Y-77790752D02*
X96872534Y-77790752D01*
X97110629Y-77457419D02*
X97110629Y-78314561D01*
X97110629Y-78314561D02*
X97063010Y-78409800D01*
X97063010Y-78409800D02*
X96967772Y-78457419D01*
X96967772Y-78457419D02*
X96872534Y-78457419D01*
X96396343Y-78457419D02*
X96491581Y-78409800D01*
X96491581Y-78409800D02*
X96539200Y-78362180D01*
X96539200Y-78362180D02*
X96586819Y-78266942D01*
X96586819Y-78266942D02*
X96586819Y-77981228D01*
X96586819Y-77981228D02*
X96539200Y-77885990D01*
X96539200Y-77885990D02*
X96491581Y-77838371D01*
X96491581Y-77838371D02*
X96396343Y-77790752D01*
X96396343Y-77790752D02*
X96253486Y-77790752D01*
X96253486Y-77790752D02*
X96158248Y-77838371D01*
X96158248Y-77838371D02*
X96110629Y-77885990D01*
X96110629Y-77885990D02*
X96063010Y-77981228D01*
X96063010Y-77981228D02*
X96063010Y-78266942D01*
X96063010Y-78266942D02*
X96110629Y-78362180D01*
X96110629Y-78362180D02*
X96158248Y-78409800D01*
X96158248Y-78409800D02*
X96253486Y-78457419D01*
X96253486Y-78457419D02*
X96396343Y-78457419D01*
X95634438Y-78457419D02*
X95634438Y-77790752D01*
X95634438Y-77885990D02*
X95586819Y-77838371D01*
X95586819Y-77838371D02*
X95491581Y-77790752D01*
X95491581Y-77790752D02*
X95348724Y-77790752D01*
X95348724Y-77790752D02*
X95253486Y-77838371D01*
X95253486Y-77838371D02*
X95205867Y-77933609D01*
X95205867Y-77933609D02*
X95205867Y-78457419D01*
X95205867Y-77933609D02*
X95158248Y-77838371D01*
X95158248Y-77838371D02*
X95063010Y-77790752D01*
X95063010Y-77790752D02*
X94920153Y-77790752D01*
X94920153Y-77790752D02*
X94824914Y-77838371D01*
X94824914Y-77838371D02*
X94777295Y-77933609D01*
X94777295Y-77933609D02*
X94777295Y-78457419D01*
M02*
